# xmcd
#
# Track frame offsets:
#	150
#	13700
#	31132
#	62632
#	74855
#	109275
#	128480
#	150557
#	169050
#	187370
#
# Disc length: 2887 seconds
#
# Revision: 3
# Processed by: cddbd v1.5.2PL0 Copyright (c) Steve Scherf et al.
# Submitted via: CDmax 2.0
#
DISCID=8b0b450a
DTITLE=Various Artist - Blues T-Bone Style
DYEAR=1997
DGENRE=Blues
TTITLE0=Clarence "Gatemouth Brown" - Strollin' With Bones
TTITLE1=Ronnie Earl - T-Bone Boogie
TTITLE2=Buddy Guy - Dedication To the Late T-Bone Walker
TTITLE3=Phillip Walker and Otis Grand - Don't Leave Me Baby
TTITLE4=Joe Houston - Blues for T-Bone
TTITLE5=Johnny Copeland - When the Rain Starts Fallin'
TTITLE6=Roomful of Blues - Two Bones and a Pick
TTITLE7=Alex Schultz with the Mighty Flyers - T-Bone Jumps Again
TTITLE8=Phillip Walker - The Hustle Is On
TTITLE9=Duke Robillard - Duke's Mood
EXTD=LABEL =Rounder Records Corp.\nID =edcd7019\nUPC =712136-7019-27\nCOPY
EXTD=RIGHT =1997
EXTT0=
EXTT1=
EXTT2=
EXTT3=
EXTT4=
EXTT5=
EXTT6=
EXTT7=
EXTT8=
EXTT9=
PLAYORDER=
